<svg width="166" height="166" viewBox="0 0 166 166" fill="none" xmlns="http://www.w3.org/2000/svg">
<path d="M95.8608 53.9088C95.4135 34.8559 75.7297 24.9933 75.7297 24.9933C75.7297 24.9933 85.5646 30.3729 85.1174 45.8393C84.6701 61.3058 84.684 60.185 82.6639 69.8235C80.6438 79.462 70.585 81.7035 70.1378 100.532C69.6905 119.361 90.9399 126.085 90.9399 126.085C90.9399 126.085 80.427 113.981 80.427 96.9458C80.427 79.9103 96.3082 72.9616 95.8608 53.9088Z" fill="black"/>
<path d="M58.4538 61.5712C56.2202 45.871 38.9559 39.6501 38.9559 39.6501C38.9559 39.6501 47.6261 43.1317 48.7682 55.956C49.9104 68.7803 49.8123 67.8528 49.082 76.0154C48.3518 84.1781 40.2415 87.016 41.7125 102.619C43.1834 118.221 61.4372 121.696 61.4372 121.696C61.4372 121.696 51.4256 111.69 49.882 98.6468C48.3385 85.604 60.6875 77.2715 58.4538 61.5712Z" fill="black"/>
<path d="M124.587 72.9773C124.269 59.5489 110.291 52.5978 110.291 52.5978C110.291 52.5978 117.275 56.3893 116.958 67.29C116.64 78.1907 116.65 77.4008 115.215 84.194C113.781 90.9872 106.638 92.567 106.32 105.837C106.002 119.108 121.093 123.847 121.093 123.847C121.093 123.847 113.627 115.316 113.627 103.31C113.627 91.3031 124.905 86.4057 124.587 72.9773Z" fill="black"/>
<circle cx="83" cy="83" r="77" stroke="#F58C77" stroke-width="12"/>
<rect x="34.6826" y="26.392" width="12.8663" height="146.086" transform="rotate(-34.3844 34.6826 26.392)" fill="#F58C77"/>
</svg>
